HIERARCHY
ROOT Hips
{
 OFFSET 0.000000 0.000000 0.000000
 CHANNELS 6 Xposition Yposition Zposition Yrotation Xrotation Zrotation
 JOINT Chest
 {
  OFFSET 0.000000 9.588913 -0.003946
  CHANNELS 3 Yrotation Xrotation Zrotation
  JOINT Chest2
  {
   OFFSET 0.000000 9.541882 0.008053
   CHANNELS 3 Yrotation Xrotation Zrotation
   JOINT Chest3
   {
    OFFSET 0.000000 9.501360 0.000000
    CHANNELS 3 Yrotation Xrotation Zrotation
    JOINT Chest4
    {
     OFFSET 0.000000 9.491660 0.000000
     CHANNELS 3 Yrotation Xrotation Zrotation
     JOINT Neck
     {
      OFFSET 0.000000 14.331917 0.000000
      CHANNELS 3 Yrotation Xrotation Zrotation
      JOINT Head
      {
       OFFSET 0.000000 8.884799 0.017034
       CHANNELS 3 Yrotation Xrotation Zrotation
       End Site
       {
        OFFSET 0.000000 16.896195 0.008993
       }
      }
     }
     JOINT RightCollar
     {
      OFFSET -2.923010 9.499495 0.000000
      CHANNELS 3 Yrotation Xrotation Zrotation
      JOINT RightShoulder
      {
       OFFSET -13.795216 0.000000 0.000000
       CHANNELS 3 Yrotation Xrotation Zrotation
       JOINT RightElbow
       {
        OFFSET -30.272209 0.000000 0.000000
        CHANNELS 3 Yrotation Xrotation Zrotation
        JOINT RightWrist
        {
         OFFSET -24.478199 0.000000 0.000000
         CHANNELS 3 Yrotation Xrotation Zrotation
         End Site
         {
          OFFSET -18.090752 0.000000 0.000000
         }
        }
       }
      }
     }
     JOINT LeftCollar
     {
      OFFSET 2.923010 9.499495 0.000000
      CHANNELS 3 Yrotation Xrotation Zrotation
      JOINT LeftShoulder
      {
       OFFSET 13.795216 0.000000 0.000000
       CHANNELS 3 Yrotation Xrotation Zrotation
       JOINT LeftElbow
       {
        OFFSET 30.272209 0.000000 0.000000
        CHANNELS 3 Yrotation Xrotation Zrotation
        JOINT LeftWrist
        {
         OFFSET 24.478199 0.000000 0.000000
         CHANNELS 3 Yrotation Xrotation Zrotation
         End Site
         {
          OFFSET 18.090752 0.000000 0.000000
         }
        }
       }
      }
     }
    }
   }
  }
 }
 JOINT RightHip
 {
  OFFSET -7.826875 0.019532 0.001973
  CHANNELS 3 Yrotation Xrotation Zrotation
  JOINT RightKnee
  {
   OFFSET 0.000000 -40.546152 -0.001885
   CHANNELS 3 Yrotation Xrotation Zrotation
   JOINT RightAnkle
   {
    OFFSET 0.000000 -39.417092 -0.003189
    CHANNELS 3 Yrotation Xrotation Zrotation
    JOINT RightToe
    {
     OFFSET 0.000000 -7.579396 17.243563
     CHANNELS 3 Yrotation Xrotation Zrotation
     End Site
     {
      OFFSET 0.000000 -1.500329 6.694466
     }
    }
   }
  }
 }
 JOINT LeftHip
 {
  OFFSET 7.826875 0.019532 0.001973
  CHANNELS 3 Yrotation Xrotation Zrotation
  JOINT LeftKnee
  {
   OFFSET 0.000000 -40.546152 -0.001885
   CHANNELS 3 Yrotation Xrotation Zrotation
   JOINT LeftAnkle
   {
    OFFSET 0.000000 -39.417092 -0.003189
    CHANNELS 3 Yrotation Xrotation Zrotation
    JOINT LeftToe
    {
     OFFSET 0.000000 -7.579396 17.243563
     CHANNELS 3 Yrotation Xrotation Zrotation
     End Site
     {
      OFFSET 0.000000 -1.500329 6.694466
     }
    }
   }
  }
 }
}
MOTION
Frames: 5
Frame Time: 0.008333
226.828741 74.314124 -234.254437 142.722960 -34.294987 -6.441492 -2.568731 11.211108 0.689534 -0.188839 7.826597 1.177570 -0.211110 9.783725 1.471345 -0.188840 7.826604 1.177564 -0.984005 20.622129 0.232569 -1.100880 -3.833011 0.471984 -1.396332 5.754725 -6.557847 -18.611835 9.118856 79.114387 49.758624 0.230990 14.947887 20.996969 -3.442881 -7.339377 3.263665 0.404279 -0.033242 14.347626 3.687890 -70.398123 -44.396470 5.511375 -17.083234 -18.914212 1.368861 8.168920 -8.667842 -40.350788 -7.968706 7.439009 66.018867 2.159972 -6.385633 -16.314098 11.914806 -0.338524 1.704867 1.343254 10.814813 -13.008752 -1.390030 10.845028 64.325152 19.183387 6.485910 -9.570491 -3.859765 -0.555731 -9.215945 3.587664
227.264095 74.787725 -234.501092 142.676115 -34.069743 -6.613857 -2.473134 11.238765 0.893659 -0.211057 7.784836 1.131904 -0.240065 9.731578 1.413635 -0.211058 7.784843 1.131897 -0.882408 20.574307 0.261944 -0.999099 -3.889090 0.479998 -1.422326 5.748429 -6.630155 -18.554022 9.183787 79.239593 49.464192 0.237514 15.243563 20.865400 -3.481257 -7.202980 3.204987 0.325037 -0.083360 14.577320 3.510555 -70.446253 -44.768511 5.483693 -16.960842 -18.433451 1.662389 7.866589 -8.897049 -40.075884 -7.633080 7.000519 65.105496 1.680550 -6.520823 -15.940646 11.643226 -0.332475 1.420977 1.324826 10.799400 -12.826439 -1.060588 10.806289 64.063262 19.224570 6.584361 -9.223273 -4.128638 -0.843166 -9.772012 3.657630
227.656419 75.243013 -234.716091 142.584081 -33.928997 -6.774669 -2.324237 11.329258 1.112266 -0.232525 7.745507 1.084124 -0.268104 9.682463 1.353303 -0.232525 7.745514 1.084119 -0.776337 20.531048 0.288123 -0.891914 -3.939840 0.483586 -1.440008 5.778228 -6.704605 -18.515311 9.254708 79.373282 49.182760 0.312808 15.518357 20.724947 -3.496180 -7.094050 3.159907 0.269611 -0.121495 14.792755 3.330702 -70.490438 -45.057239 5.451966 -16.814628 -17.961535 1.895850 7.566855 -9.041916 -39.687428 -7.312871 6.589752 64.218852 1.257315 -6.650145 -15.565100 11.454498 -0.315181 1.146190 1.239952 10.844175 -12.559270 -0.691592 10.726408 63.769630 19.183326 6.661869 -8.982936 -4.332969 -1.117151 -10.195025 3.713654
228.019589 75.682720 -234.904596 142.439394 -33.892918 -6.966683 -2.093829 11.504270 1.387069 -0.251857 7.709131 1.039775 -0.293375 9.637028 1.297322 -0.251856 7.709137 1.039770 -0.668723 20.490082 0.309649 -0.782097 -3.987837 0.481867 -1.448813 5.833893 -6.779631 -18.491025 9.341959 79.510063 48.910721 0.449053 15.764634 20.585667 -3.493373 -7.017670 3.122267 0.228629 -0.173772 14.975767 3.130269 -70.515300 -45.226685 5.426892 -16.644220 -17.555523 2.046464 7.325091 -9.096165 -39.148755 -6.969477 6.226262 63.344132 0.939446 -6.791449 -15.202323 11.326285 -0.289849 0.895503 1.110434 10.955105 -12.205216 -0.224129 10.633150 63.462877 19.095790 6.697825 -8.861646 -4.499715 -1.365588 -10.490842 3.770361
228.329738 76.092408 -235.076488 142.348398 -33.817981 -7.100075 -1.916089 11.631744 1.563014 -0.267756 7.676004 1.001844 -0.314191 9.595643 1.249461 -0.267755 7.676009 1.001839 -0.556449 20.449846 0.328222 -0.666719 -4.034879 0.475940 -1.446846 5.895927 -6.846256 -18.468610 9.452867 79.645413 48.639326 0.629136 15.960340 20.438457 -3.481784 -6.948833 3.088788 0.191314 -0.257496 15.128115 2.898187 -70.512337 -45.262078 5.406547 -16.461367 -17.242779 2.121137 7.184952 -9.063693 -38.636707 -6.777320 5.944908 62.503821 0.745769 -6.956725 -14.900928 11.255602 -0.255382 0.705738 0.962682 11.043114 -11.868647 0.175607 10.551274 63.151594 18.965092 6.579652 -8.938143 -4.669066 -1.489185 -10.595688 3.881484
